<svg width="25" height="22" viewBox="0 0 25 22" fill="none" xmlns="http://www.w3.org/2000/svg">
<g clip-path="url(#clip0_86_1249)">
<path d="M5.37585 1.48087C8.24048 3.63146 11.3217 7.99195 12.453 10.332C13.5844 7.99212 16.6654 3.63141 19.5301 1.48087C21.5971 -0.0709055 24.9461 -1.27158 24.9461 2.54903C24.9461 3.31206 24.5086 8.95887 24.2521 9.87561C23.3602 13.0628 20.1102 13.8757 17.2193 13.3837C22.2726 14.2438 23.5581 17.0925 20.7819 19.9413C15.5093 25.3517 13.2037 18.5838 12.6126 16.8497C12.5043 16.5317 12.4537 16.383 12.4529 16.5095C12.4522 16.383 12.4015 16.5317 12.2932 16.8497C11.7024 18.5838 9.39681 25.3519 4.12398 19.9413C1.34775 17.0925 2.6332 14.2436 7.68655 13.3837C4.79555 13.8757 1.54553 13.0628 0.653775 9.87561C0.397183 8.95879 -0.0402832 3.31198 -0.0402832 2.54903C-0.0402832 -1.27158 3.30882 -0.0709055 5.3757 1.48087H5.37585Z" fill="#163A34"/>
</g>
<defs>
<clipPath id="clip0_86_1249">
<rect width="24.9057" height="22" fill="white"/>
</clipPath>
</defs>
</svg>
