<svg width="60" height="61" viewBox="0 0 60 61" fill="none" xmlns="http://www.w3.org/2000/svg">
<g filter="url(#filter0_d_86_1171)">
<path d="M0 12C0 5.37258 5.37258 0 12 0H48C54.6274 0 60 5.37258 60 12V48C60 54.6274 54.6274 60 48 60H12C5.37258 60 0 54.6274 0 48V12Z" fill="white"/>
<path d="M12 0.5H48C54.3513 0.5 59.5 5.64873 59.5 12V48C59.5 54.3513 54.3513 59.5 48 59.5H12C5.64873 59.5 0.5 54.3513 0.5 48V12C0.5 5.64873 5.64873 0.5 12 0.5Z" stroke="#E9EDE8"/>
<path opacity="0.4" d="M33.3439 18.4917C33.4019 18.9293 32.9841 19.2583 32.5461 19.2043C28.4568 18.7003 23.0401 21.6071 21.352 25.3749C21.1687 25.7841 20.6601 25.9735 20.3153 25.6869C19.6394 25.1249 19.0587 24.4357 18.7024 23.6379C18.3364 22.8184 18.2204 21.8082 18.8465 20.9597C19.2895 20.3593 20.0062 19.981 20.9265 19.7872C20.3153 17.3123 21.0095 15.2276 22.6856 14.3415C24.3627 13.4548 26.4806 14.0556 28.1843 15.9551C28.8724 15.3014 29.5918 14.9194 30.3356 14.8886C31.3909 14.8448 32.1526 15.5103 32.6144 16.2743C32.9958 16.905 33.2361 17.6795 33.3439 18.4917Z" fill="#FE9F6B"/>
<path d="M26.1252 35.9951C25.7631 36.1866 25.3146 36.087 25.0739 35.7555C23.3645 33.4011 22.1548 31.2166 21.9082 29.9346C21.5317 27.9566 21.4344 24.6688 26.7724 21.844C32.112 19.0192 34.7765 20.9504 36.1979 22.3754C36.5709 22.7498 36.9774 23.3377 37.3944 24.0864C37.6147 24.4822 37.4544 24.9767 37.054 25.1885L33.0832 27.2895C32.473 27.6125 32.24 28.3688 32.5629 28.979C32.8859 29.5891 33.6422 29.8221 34.2524 29.4993L37.9669 27.5338C38.4057 27.3018 38.9492 27.5018 39.1207 27.9675C39.762 29.7083 40.35 31.6728 40.7919 33.6478C40.8729 34.0098 40.6984 34.3795 40.3705 34.553L37.375 36.1383C36.7649 36.4613 36.532 37.2176 36.855 37.8278C37.1779 38.438 37.9344 38.6708 38.5445 38.348L40.3112 37.413C40.8242 37.1413 41.4507 37.4648 41.503 38.0428C41.831 41.6695 41.3467 44.7293 39.374 45.6638C36.5495 47.3216 31.655 43.5166 27.7572 39.0998C27.4055 38.7013 27.5262 38.0823 27.996 37.8338L30.7087 36.399C31.319 36.0761 31.552 35.3198 31.2292 34.7095C30.9065 34.0993 30.1502 33.8663 29.5399 34.189L26.1252 35.9951Z" fill="#FE9F6B"/>
</g>
<defs>
<filter id="filter0_d_86_1171" x="0" y="0" width="60" height="61" filterUnits="userSpaceOnUse" color-interpolation-filters="sRGB">
<feFlood flood-opacity="0" result="BackgroundImageFix"/>
<feColorMatrix in="SourceAlpha" type="matrix" values="0 0 0 0 0 0 0 0 0 0 0 0 0 0 0 0 0 0 127 0" result="hardAlpha"/>
<feOffset dy="1"/>
<feComposite in2="hardAlpha" operator="out"/>
<feColorMatrix type="matrix" values="0 0 0 0 0.913725 0 0 0 0 0.929412 0 0 0 0 0.909804 0 0 0 1 0"/>
<feBlend mode="normal" in2="BackgroundImageFix" result="effect1_dropShadow_86_1171"/>
<feBlend mode="normal" in="SourceGraphic" in2="effect1_dropShadow_86_1171" result="shape"/>
</filter>
</defs>
</svg>
