<svg width="20" height="20" viewBox="0 0 20 20" fill="none" xmlns="http://www.w3.org/2000/svg">
<path fill-rule="evenodd" clip-rule="evenodd" d="M12.8015 13.0876C12.6849 13.2876 12.4765 13.396 12.2682 13.396C12.1599 13.396 12.0432 13.3626 11.9432 13.3043L9.6682 11.9376C9.47654 11.8293 9.35987 11.621 9.35987 11.4043V8.46262C9.35987 8.11259 9.6432 7.83759 9.98487 7.83759C10.3265 7.83759 10.6099 8.11259 10.6099 8.46262V11.046L12.5849 12.2376C12.8849 12.4126 12.9849 12.796 12.8015 13.0876ZM10.1265 4.19592C6.4599 4.19592 3.47656 7.17926 3.47656 10.846C3.47656 14.5126 6.4599 17.496 10.1265 17.496C13.7932 17.496 16.7765 14.5126 16.7765 10.846C16.7765 7.17926 13.7932 4.19592 10.1265 4.19592Z" fill="#163A34"/>
<path fill-rule="evenodd" clip-rule="evenodd" d="M5.66371 3.66875C5.95787 3.48708 6.04871 3.10208 5.86704 2.80875C5.68454 2.51458 5.29954 2.42375 5.00704 2.60541C3.86287 3.31125 2.86287 4.26375 2.11537 5.35958C1.92121 5.64458 1.99454 6.03375 2.27954 6.22791C2.38704 6.30208 2.50954 6.33708 2.63121 6.33708C2.83121 6.33708 3.02704 6.24125 3.14787 6.06458C3.79787 5.11208 4.66787 4.28375 5.66371 3.66875Z" fill="#163A34"/>
<path fill-rule="evenodd" clip-rule="evenodd" d="M18.1479 5.35997C17.3929 4.25163 16.3896 3.2958 15.2471 2.5958C14.9529 2.4158 14.5679 2.50747 14.3871 2.80163C14.2071 3.09663 14.2987 3.4808 14.5929 3.66163C15.5871 4.26997 16.4587 5.1008 17.1154 6.06413C17.2362 6.24163 17.4321 6.33663 17.6321 6.33663C17.7529 6.33663 17.8754 6.30163 17.9837 6.2283C18.2687 6.03413 18.3421 5.64497 18.1479 5.35997Z" fill="#163A34"/>
</svg>
